{
  "accessors": [
    {
      "bufferView": 2,
      "componentType": 5126,
      "count": 5586,
      "max": [
        1.7716535329818726,
        0.36417323350906372,
        1.1417323350906372
      ],
      "min": [
        -1.7716535329818726,
        -0.36417323350906372,
        -1.1417323350906372
      ],
      "type": "VEC3"
    },
    {
      "bufferView": 2,
      "byteOffset": 67032,
      "componentType": 5126,
      "count": 5586,
      "max": [
        1,
        1,
        1
      ],
      "min": [
        -1,
        -1,
        -1
      ],
      "type": "VEC3"
    },
    {
      "bufferView": 1,
      "componentType": 5126,
      "count": 5586,
      "max": [
        0.83311599493026733,
        0.47377407550811768
      ],
      "min": [
        -0.27605411410331726,
        -0.00012445449829101562
      ],
      "type": "VEC2"
    },
    {
      "bufferView": 0,
      "componentType": 5125,
      "count": 12693,
      "max": [
        5585
      ],
      "min": [
        0
      ],
      "type": "SCALAR"
    }
  ],
  "asset": {
    "extras": {
      "author": "impoimpo (https://sketchfab.com/impoimpo)",
      "license": "CC-BY-4.0 (http://creativecommons.org/licenses/by/4.0/)",
      "source": "https://sketchfab.com/3d-models/orange-pi-5df625a6bc124a1fac7242057542e5b0",
      "title": "Orange Pi"
    },
    "generator": "Sketchfab-7.75.0",
    "version": "2.0"
  },
  "bufferViews": [
    {
      "buffer": 0,
      "byteLength": 50772,
      "byteOffset": 0,
      "name": "floatBufferViews",
      "target": 34963
    },
    {
      "buffer": 0,
      "byteLength": 44688,
      "byteOffset": 50772,
      "byteStride": 8,
      "name": "floatBufferViews",
      "target": 34962
    },
    {
      "buffer": 0,
      "byteLength": 134064,
      "byteOffset": 95460,
      "byteStride": 12,
      "name": "floatBufferViews",
      "target": 34962
    }
  ],
  "buffers": [
    {
      "byteLength": 229524,
      "uri": "scene.bin"
    }
  ],
  "images": [
    {
      "uri": "textures/orangepi_baseColor.png"
    }
  ],
  "materials": [
    {
      "doubleSided": true,
      "name": "orangepi",
      "pbrMetallicRoughness": {
        "baseColorFactor": [
          1,
          1,
          1,
          1
        ],
        "baseColorTexture": {
          "index": 0,
          "texCoord": 0
        },
        "metallicFactor": 0,
        "roughnessFactor": 0.1602515243902439
      }
    }
  ],
  "meshes": [
    {
      "name": "orange_pi_orangepi_0",
      "primitives": [
        {
          "attributes": {
            "NORMAL": 1,
            "POSITION": 0,
            "TEXCOORD_0": 2
          },
          "indices": 3,
          "material": 0,
          "mode": 4
        }
      ]
    }
  ],
  "nodes": [
    {
      "children": [
        1
      ],
      "name": "RootNode (gltf orientation matrix)",
      "rotation": [
        -0.70710678118654746,
        -0,
        -0,
        0.70710678118654757
      ]
    },
    {
      "children": [
        2
      ],
      "matrix": [
        1,
        2.832769343193999e-16,
        -1.6081226229577292e-16,
        0,
        -2.832769343193999e-16,
        1,
        1.6081226229577292e-16,
        0,
        1.6081226229577292e-16,
        -1.6081226229577292e-16,
        1,
        0,
        2.2204460492503131e-16,
        -4.4408920985006262e-16,
        1.1102230246251565e-16,
        1
      ],
      "name": "RootNode (model correction matrix)"
    },
    {
      "children": [
        3
      ],
      "matrix": [
        1,
        0,
        0,
        0,
        0,
        0,
        1,
        0,
        0,
        -1,
        0,
        0,
        0,
        0,
        0,
        1
      ],
      "name": "ff0d1979b2ab42ebbacb9e8a8d035ba8.fbx"
    },
    {
      "children": [
        4
      ],
      "name": "RootNode"
    },
    {
      "children": [
        5
      ],
      "matrix": [
        1,
        0,
        0,
        0,
        0,
        1,
        0,
        0,
        0,
        0,
        1,
        0,
        1.7716535329818726,
        0.36417323350906372,
        -1.1417323350906372,
        1
      ],
      "name": "orange_pi"
    },
    {
      "mesh": 0,
      "name": "orange_pi_orangepi_0"
    }
  ],
  "samplers": [
    {
      "magFilter": 9729,
      "minFilter": 9987,
      "wrapS": 10497,
      "wrapT": 10497
    }
  ],
  "scene": 0,
  "scenes": [
    {
      "name": "OSG_Scene",
      "nodes": [
        0
      ]
    }
  ],
  "textures": [
    {
      "sampler": 0,
      "source": 0
    }
  ]
}

