{
  "accessors": [
    {
      "bufferView": 2,
      "componentType": 5126,
      "count": 1075,
      "max": [
        1.7041984796524048,
        0.41572767496109009,
        1.9310808181762695
      ],
      "min": [
        -1.7041984796524048,
        -0.4125053882598877,
        -1.9310808181762695
      ],
      "type": "VEC3"
    },
    {
      "bufferView": 2,
      "byteOffset": 12900,
      "componentType": 5126,
      "count": 1075,
      "max": [
        0.99979227781295776,
        1,
        1
      ],
      "min": [
        -0.99985301494598389,
        -1,
        -1
      ],
      "type": "VEC3"
    },
    {
      "bufferView": 1,
      "componentType": 5126,
      "count": 1075,
      "max": [
        1,
        1
      ],
      "min": [
        0,
        0
      ],
      "type": "VEC2"
    },
    {
      "bufferView": 0,
      "componentType": 5125,
      "count": 3411,
      "max": [
        1074
      ],
      "min": [
        0
      ],
      "type": "SCALAR"
    },
    {
      "bufferView": 2,
      "byteOffset": 25800,
      "componentType": 5126,
      "count": 4,
      "max": [
        1.1842772960662842,
        0.25792086124420166,
        0.28273114562034607
      ],
      "min": [
        -1.1876771450042725,
        0.25792086124420166,
        -1.0490201711654663
      ],
      "type": "VEC3"
    },
    {
      "bufferView": 2,
      "byteOffset": 25848,
      "componentType": 5126,
      "count": 4,
      "max": [
        0,
        1,
        -0
      ],
      "min": [
        0,
        1,
        -0
      ],
      "type": "VEC3"
    },
    {
      "bufferView": 1,
      "byteOffset": 8600,
      "componentType": 5126,
      "count": 4,
      "max": [
        0.99303996562957764,
        0.99696695804595947
      ],
      "min": [
        0.0086604263633489609,
        0.00313568115234375
      ],
      "type": "VEC2"
    },
    {
      "bufferView": 1,
      "byteOffset": 8632,
      "componentType": 5126,
      "count": 4,
      "max": [
        0.99303996562957764,
        0.99696695804595947
      ],
      "min": [
        0.0086604263633489609,
        0.00313568115234375
      ],
      "type": "VEC2"
    },
    {
      "bufferView": 0,
      "byteOffset": 13644,
      "componentType": 5125,
      "count": 6,
      "max": [
        3
      ],
      "min": [
        0
      ],
      "type": "SCALAR"
    },
    {
      "bufferView": 2,
      "byteOffset": 25896,
      "componentType": 5126,
      "count": 40,
      "max": [
        0.84539610147476196,
        0.27444857358932495,
        1.9924798011779785
      ],
      "min": [
        -0.84539610147476196,
        -0.27444857358932495,
        -1.9924798011779785
      ],
      "type": "VEC3"
    },
    {
      "bufferView": 2,
      "byteOffset": 26376,
      "componentType": 5126,
      "count": 40,
      "max": [
        1,
        1,
        1
      ],
      "min": [
        -1,
        -1,
        -1
      ],
      "type": "VEC3"
    },
    {
      "bufferView": 1,
      "byteOffset": 8664,
      "componentType": 5126,
      "count": 40,
      "max": [
        1,
        1
      ],
      "min": [
        0,
        0
      ],
      "type": "VEC2"
    },
    {
      "bufferView": 0,
      "byteOffset": 13668,
      "componentType": 5125,
      "count": 60,
      "max": [
        39
      ],
      "min": [
        0
      ],
      "type": "SCALAR"
    },
    {
      "bufferView": 2,
      "byteOffset": 26856,
      "componentType": 5126,
      "count": 434,
      "max": [
        2.8030319213867188,
        0.8070254921913147,
        3.9159555435180664
      ],
      "min": [
        -3.1456394195556641,
        -0.8070254921913147,
        -3.7310247421264648
      ],
      "type": "VEC3"
    },
    {
      "bufferView": 2,
      "byteOffset": 32064,
      "componentType": 5126,
      "count": 434,
      "max": [
        0.99971425533294678,
        0.99998223781585693,
        0.99974989891052246
      ],
      "min": [
        -0.99984514713287354,
        -0.99998188018798828,
        -0.99971967935562134
      ],
      "type": "VEC3"
    },
    {
      "bufferView": 3,
      "componentType": 5126,
      "count": 434,
      "max": [
        0.99999809265136719,
        0.99993717670440674,
        1,
        1
      ],
      "min": [
        -0.99901539087295532,
        -0.99994355440139771,
        -0.99999368190765381,
        -1
      ],
      "type": "VEC4"
    },
    {
      "bufferView": 1,
      "byteOffset": 8984,
      "componentType": 5126,
      "count": 434,
      "max": [
        0.99700325727462769,
        4.5979647636413574
      ],
      "min": [
        -0.0011621132725849748,
        -2.0531878471374512
      ],
      "type": "VEC2"
    },
    {
      "bufferView": 0,
      "byteOffset": 13908,
      "componentType": 5125,
      "count": 2520,
      "max": [
        433
      ],
      "min": [
        0
      ],
      "type": "SCALAR"
    },
    {
      "bufferView": 2,
      "byteOffset": 37272,
      "componentType": 5126,
      "count": 120,
      "max": [
        0.53523075580596924,
        0.41663044691085815,
        0.34096923470497131
      ],
      "min": [
        -0.39173972606658936,
        0.38824310898780823,
        -0.20750315487384796
      ],
      "type": "VEC3"
    },
    {
      "bufferView": 2,
      "byteOffset": 38712,
      "componentType": 5126,
      "count": 120,
      "max": [
        0.97739380598068237,
        1,
        0.97223979234695435
      ],
      "min": [
        -0.94798415899276733,
        0.18884630501270294,
        -0.95109426975250244
      ],
      "type": "VEC3"
    },
    {
      "bufferView": 1,
      "byteOffset": 12456,
      "componentType": 5126,
      "count": 120,
      "max": [
        0,
        1
      ],
      "min": [
        0,
        1
      ],
      "type": "VEC2"
    },
    {
      "bufferView": 0,
      "byteOffset": 23988,
      "componentType": 5125,
      "count": 549,
      "max": [
        119
      ],
      "min": [
        0
      ],
      "type": "SCALAR"
    },
    {
      "bufferView": 2,
      "byteOffset": 40152,
      "componentType": 5126,
      "count": 125,
      "max": [
        0.42795011401176453,
        0.41786795854568481,
        0.33667647838592529
      ],
      "min": [
        -0.50212395191192627,
        0.38939628005027771,
        -0.21377553045749664
      ],
      "type": "VEC3"
    },
    {
      "bufferView": 2,
      "byteOffset": 41652,
      "componentType": 5126,
      "count": 125,
      "max": [
        0.97287929058074951,
        1,
        0.97287935018539429
      ],
      "min": [
        -0.95945924520492554,
        0.19416463375091553,
        -0.96882849931716919
      ],
      "type": "VEC3"
    },
    {
      "bufferView": 1,
      "byteOffset": 13416,
      "componentType": 5126,
      "count": 125,
      "max": [
        0,
        1
      ],
      "min": [
        0,
        1
      ],
      "type": "VEC2"
    },
    {
      "bufferView": 0,
      "byteOffset": 26184,
      "componentType": 5125,
      "count": 552,
      "max": [
        124
      ],
      "min": [
        0
      ],
      "type": "SCALAR"
    }
  ],
  "asset": {
    "extras": {
      "author": "impoimpo (https://sketchfab.com/impoimpo)",
      "license": "CC-BY-4.0 (http://creativecommons.org/licenses/by/4.0/)",
      "source": "https://sketchfab.com/3d-models/skywatches-cd5f9665cee441dab5f2612136704b5f",
      "title": "SkyWatches"
    },
    "generator": "Sketchfab-7.97.0",
    "version": "2.0"
  },
  "bufferViews": [
    {
      "buffer": 0,
      "byteLength": 28392,
      "byteOffset": 0,
      "name": "floatBufferViews",
      "target": 34963
    },
    {
      "buffer": 0,
      "byteLength": 14416,
      "byteOffset": 28392,
      "byteStride": 8,
      "name": "floatBufferViews",
      "target": 34962
    },
    {
      "buffer": 0,
      "byteLength": 43152,
      "byteOffset": 42808,
      "byteStride": 12,
      "name": "floatBufferViews",
      "target": 34962
    },
    {
      "buffer": 0,
      "byteLength": 6944,
      "byteOffset": 85960,
      "byteStride": 16,
      "name": "floatBufferViews",
      "target": 34962
    }
  ],
  "buffers": [
    {
      "byteLength": 92904,
      "uri": "scene.bin"
    }
  ],
  "images": [
    {
      "uri": "textures/Display_baseColor.jpeg"
    },
    {
      "uri": "textures/Display_emissive.jpeg"
    },
    {
      "uri": "textures/BAND_0_normal.jpeg"
    }
  ],
  "materials": [
    {
      "doubleSided": false,
      "name": "BAND",
      "pbrMetallicRoughness": {
        "baseColorFactor": [
          0.61273236318206736,
          0.65163728868710169,
          0.70760125268926688,
          1
        ],
        "metallicFactor": 0.22122713414634146,
        "roughnessFactor": 0.37976371951219512
      }
    },
    {
      "doubleSided": false,
      "emissiveFactor": [
        1,
        1,
        1
      ],
      "emissiveTexture": {
        "index": 1,
        "texCoord": 0
      },
      "name": "Display",
      "pbrMetallicRoughness": {
        "baseColorFactor": [
          1,
          1,
          1,
          1
        ],
        "baseColorTexture": {
          "index": 0,
          "texCoord": 0
        },
        "metallicFactor": 0.94073932926829273,
        "roughnessFactor": 0.18464176829268292
      }
    },
    {
      "doubleSided": false,
      "name": "Mat.1",
      "pbrMetallicRoughness": {
        "baseColorFactor": [
          0.43371827362804877,
          0.43640106707317072,
          0.44713224085365849,
          1
        ],
        "metallicFactor": 0,
        "roughnessFactor": 0.26391006097560976
      }
    },
    {
      "doubleSided": false,
      "name": "BAND_0",
      "normalTexture": {
        "index": 2,
        "scale": 1,
        "texCoord": 0
      },
      "pbrMetallicRoughness": {
        "baseColorFactor": [
          0.21346170464703113,
          0.22081583909473404,
          0.2307903924940071,
          1
        ],
        "metallicFactor": 1,
        "roughnessFactor": 0.10000000000000001
      }
    }
  ],
  "meshes": [
    {
      "name": "simple_wallet_BAND_0",
      "primitives": [
        {
          "attributes": {
            "NORMAL": 1,
            "POSITION": 0,
            "TEXCOORD_0": 2
          },
          "indices": 3,
          "material": 0,
          "mode": 4
        }
      ]
    },
    {
      "name": "simple_wallet_Display_0",
      "primitives": [
        {
          "attributes": {
            "NORMAL": 5,
            "POSITION": 4,
            "TEXCOORD_0": 6,
            "TEXCOORD_1": 7
          },
          "indices": 8,
          "material": 1,
          "mode": 4
        }
      ]
    },
    {
      "name": "connector_Mat.1_0",
      "primitives": [
        {
          "attributes": {
            "NORMAL": 10,
            "POSITION": 9,
            "TEXCOORD_0": 11
          },
          "indices": 12,
          "material": 2,
          "mode": 4
        }
      ]
    },
    {
      "name": "wrist_BAND_0",
      "primitives": [
        {
          "attributes": {
            "NORMAL": 14,
            "POSITION": 13,
            "TANGENT": 15,
            "TEXCOORD_0": 16
          },
          "indices": 17,
          "material": 3,
          "mode": 4
        }
      ]
    },
    {
      "name": "button1_BAND_0",
      "primitives": [
        {
          "attributes": {
            "NORMAL": 19,
            "POSITION": 18,
            "TEXCOORD_0": 20
          },
          "indices": 21,
          "material": 0,
          "mode": 4
        }
      ]
    },
    {
      "name": "button2_BAND_0",
      "primitives": [
        {
          "attributes": {
            "NORMAL": 23,
            "POSITION": 22,
            "TEXCOORD_0": 24
          },
          "indices": 25,
          "material": 0,
          "mode": 4
        }
      ]
    }
  ],
  "nodes": [
    {
      "children": [
        1
      ],
      "name": "RootNode (gltf orientation matrix)",
      "rotation": [
        -0.70710678118654746,
        -0,
        -0,
        0.70710678118654757
      ]
    },
    {
      "children": [
        2
      ],
      "name": "RootNode (model correction matrix)"
    },
    {
      "children": [
        3
      ],
      "matrix": [
        1,
        0,
        0,
        0,
        0,
        0,
        1,
        0,
        0,
        -1,
        0,
        0,
        0,
        0,
        0,
        1
      ],
      "name": "9e5c82b5fdd845f1a63f637bdc56fe76.fbx"
    },
    {
      "children": [
        4
      ],
      "name": "RootNode"
    },
    {
      "children": [
        5,
        6,
        7,
        9,
        11,
        13
      ],
      "matrix": [
        1,
        0,
        0,
        0,
        0,
        1,
        0,
        0,
        0,
        0,
        1,
        0,
        0.22277002036571503,
        3.9559929370880127,
        0.23600369691848755,
        1
      ],
      "name": "simple_wallet"
    },
    {
      "mesh": 0,
      "name": "simple_wallet_BAND_0"
    },
    {
      "mesh": 1,
      "name": "simple_wallet_Display_0"
    },
    {
      "children": [
        8
      ],
      "matrix": [
        1,
        0,
        0,
        0,
        0,
        1,
        0,
        0,
        0,
        0,
        1,
        0,
        -0.027291443198919296,
        -0.065694957971572876,
        -0.0061095389537513256,
        1
      ],
      "name": "connector"
    },
    {
      "mesh": 2,
      "name": "connector_Mat.1_0"
    },
    {
      "children": [
        10
      ],
      "matrix": [
        4.4408920985006262e-16,
        1,
        0,
        0,
        -1,
        4.4408920985006262e-16,
        0,
        0,
        0,
        0,
        1,
        0,
        -0.035388201475143433,
        -2.612715482711792,
        -0.084762535989284515,
        1
      ],
      "name": "wrist"
    },
    {
      "mesh": 3,
      "name": "wrist_BAND_0"
    },
    {
      "children": [
        12
      ],
      "matrix": [
        1,
        0,
        0,
        0,
        0,
        1,
        0,
        0,
        0,
        0,
        1,
        0,
        -0.68153148889541626,
        0,
        0.77538919448852539,
        1
      ],
      "name": "button1"
    },
    {
      "mesh": 4,
      "name": "button1_BAND_0"
    },
    {
      "children": [
        14
      ],
      "matrix": [
        1,
        0,
        0,
        0,
        0,
        1,
        0,
        0,
        0,
        0,
        1,
        0,
        0.64388036727905273,
        0.0029592239297926426,
        0.78062659502029419,
        1
      ],
      "name": "button2"
    },
    {
      "mesh": 5,
      "name": "button2_BAND_0"
    }
  ],
  "samplers": [
    {
      "magFilter": 9729,
      "minFilter": 9987,
      "wrapS": 10497,
      "wrapT": 10497
    }
  ],
  "scene": 0,
  "scenes": [
    {
      "name": "OSG_Scene",
      "nodes": [
        0
      ]
    }
  ],
  "textures": [
    {
      "sampler": 0,
      "source": 0
    },
    {
      "sampler": 0,
      "source": 1
    },
    {
      "sampler": 0,
      "source": 2
    }
  ]
}

