{
  "accessors": [
    {
      "bufferView": 2,
      "componentType": 5126,
      "count": 134,
      "max": [
        191.87416076660156,
        13.038351058959961,
        189.92115783691406
      ],
      "min": [
        -191.87416076660156,
        -13.038351058959961,
        -189.92115783691406
      ],
      "type": "VEC3"
    },
    {
      "bufferView": 2,
      "byteOffset": 1608,
      "componentType": 5126,
      "count": 134,
      "max": [
        1,
        1,
        0.98982143402099609
      ],
      "min": [
        -1,
        -1,
        -0.98982143402099609
      ],
      "type": "VEC3"
    },
    {
      "bufferView": 3,
      "componentType": 5126,
      "count": 134,
      "max": [
        1,
        0.00081734056584537029,
        1,
        1
      ],
      "min": [
        -1,
        -0.00081735121784731746,
        -1,
        1
      ],
      "type": "VEC4"
    },
    {
      "bufferView": 1,
      "componentType": 5126,
      "count": 134,
      "max": [
        1,
        1
      ],
      "min": [
        -0.00039061601273715496,
        0
      ],
      "type": "VEC2"
    },
    {
      "bufferView": 0,
      "componentType": 5125,
      "count": 264,
      "max": [
        133
      ],
      "min": [
        0
      ],
      "type": "SCALAR"
    }
  ],
  "asset": {
    "extras": {
      "author": "impoimpo (https://sketchfab.com/impoimpo)",
      "license": "CC-BY-4.0 (http://creativecommons.org/licenses/by/4.0/)",
      "source": "https://sketchfab.com/3d-models/low-poly-skycoin-c37b23cab1834016bdb4e3ae3484077b",
      "title": "Low Poly Skycoin"
    },
    "generator": "Sketchfab-7.39.0",
    "version": "2.0"
  },
  "bufferViews": [
    {
      "buffer": 0,
      "byteLength": 1056,
      "byteOffset": 0,
      "name": "floatBufferViews",
      "target": 34963
    },
    {
      "buffer": 0,
      "byteLength": 1072,
      "byteOffset": 1056,
      "byteStride": 8,
      "name": "floatBufferViews",
      "target": 34962
    },
    {
      "buffer": 0,
      "byteLength": 3216,
      "byteOffset": 2128,
      "byteStride": 12,
      "name": "floatBufferViews",
      "target": 34962
    },
    {
      "buffer": 0,
      "byteLength": 2144,
      "byteOffset": 5344,
      "byteStride": 16,
      "name": "floatBufferViews",
      "target": 34962
    }
  ],
  "buffers": [
    {
      "byteLength": 7488,
      "uri": "scene.bin"
    }
  ],
  "images": [
    {
      "uri": "textures/coin_normal.png"
    }
  ],
  "materials": [
    {
      "doubleSided": false,
      "name": "coin",
      "normalTexture": {
        "index": 0,
        "scale": 1,
        "texCoord": 0
      },
      "pbrMetallicRoughness": {
        "baseColorFactor": [
          0.67513953954370676,
          0.66064114386305195,
          0.62898874996217058,
          1
        ],
        "metallicFactor": 1,
        "roughnessFactor": 0.37976371951219512
      }
    }
  ],
  "meshes": [
    {
      "name": "coin_coin_0",
      "primitives": [
        {
          "attributes": {
            "NORMAL": 1,
            "POSITION": 0,
            "TANGENT": 2,
            "TEXCOORD_0": 3
          },
          "indices": 4,
          "material": 0,
          "mode": 4
        }
      ]
    }
  ],
  "nodes": [
    {
      "children": [
        1
      ],
      "name": "RootNode (gltf orientation matrix)",
      "rotation": [
        -0.70710678118654746,
        -0,
        -0,
        0.70710678118654757
      ]
    },
    {
      "children": [
        2
      ],
      "name": "RootNode (model correction matrix)"
    },
    {
      "children": [
        3
      ],
      "matrix": [
        1,
        0,
        0,
        0,
        0,
        0,
        1,
        0,
        0,
        -1,
        0,
        0,
        0,
        0,
        0,
        1
      ],
      "name": "2a88c24fb093420ca01ceea9f4d00304.fbx"
    },
    {
      "children": [
        4
      ],
      "name": "RootNode"
    },
    {
      "children": [
        5
      ],
      "matrix": [
        1,
        0,
        0,
        0,
        0,
        2.2204460492503131e-16,
        -1,
        0,
        0,
        1,
        2.2204460492503131e-16,
        0,
        0,
        0,
        0,
        1
      ],
      "name": "coin"
    },
    {
      "mesh": 0,
      "name": "coin_coin_0"
    }
  ],
  "samplers": [
    {
      "magFilter": 9729,
      "minFilter": 9987,
      "wrapS": 10497,
      "wrapT": 10497
    }
  ],
  "scene": 0,
  "scenes": [
    {
      "name": "OSG_Scene",
      "nodes": [
        0
      ]
    }
  ],
  "textures": [
    {
      "sampler": 0,
      "source": 0
    }
  ]
}

