{
    "accessors" : [
        {
            "bufferView" : 0,
            "componentType" : 5123,
            "count" : 504,
            "max" : [
                335
            ],
            "min" : [
                0
            ],
            "type" : "SCALAR"
        },
        {
            "bufferView" : 1,
            "componentType" : 5126,
            "count" : 336,
            "max" : [
                10.599324226379395,
                1.0157376527786255,
                26.615022659301758
            ],
            "min" : [
                -17.986459732055664,
                -22.60895538330078,
                -1.0022647380828857
            ],
            "type" : "VEC3"
        },
        {
            "bufferView" : 2,
            "componentType" : 5126,
            "count" : 336,
            "max" : [
                1.0,
                1.0,
                1.0
            ],
            "min" : [
                -1.0,
                -1.0,
                -1.0
            ],
            "type" : "VEC3"
        },
        {
            "bufferView" : 3,
            "componentType" : 5126,
            "count" : 336,
            "max" : [
                1.0,
                1.0,
                1.3433279377750296e-07,
                1.0
            ],
            "min" : [
                -1.0,
                -1.0,
                -1.0,
                1.0
            ],
            "type" : "VEC4"
        },
        {
            "bufferView" : 4,
            "componentType" : 5126,
            "count" : 336,
            "max" : [
                0.35594332218170166,
                0.6158896684646606
            ],
            "min" : [
                0.016927387565374374,
                0.011692225933074951
            ],
            "type" : "VEC2"
        },
        {
            "bufferView" : 5,
            "componentType" : 5123,
            "count" : 936,
            "max" : [
                571
            ],
            "min" : [
                0
            ],
            "type" : "SCALAR"
        },
        {
            "bufferView" : 6,
            "componentType" : 5126,
            "count" : 572,
            "max" : [
                35.32912063598633,
                4.379726409912109,
                4.4156270027160645
            ],
            "min" : [
                -1.3030476570129395,
                -26.863037109375,
                -26.906408309936523
            ],
            "type" : "VEC3"
        },
        {
            "bufferView" : 7,
            "componentType" : 5126,
            "count" : 572,
            "max" : [
                1.0,
                1.0,
                1.0
            ],
            "min" : [
                -1.0,
                -1.0,
                -1.0
            ],
            "type" : "VEC3"
        },
        {
            "bufferView" : 8,
            "componentType" : 5126,
            "count" : 572,
            "max" : [
                0.12371285259723663,
                0.12423926591873169
            ],
            "min" : [
                1.4475546777248383e-05,
                1.9073486328125e-06
            ],
            "type" : "VEC2"
        }
    ],
    "asset" : {
        "generator" : "Khronos Blender glTF 2.0 exporter",
        "version" : "2.0"
    },
    "bufferViews" : [
        {
            "buffer" : 0,
            "byteLength" : 1008,
            "byteOffset" : 0,
            "target" : 34963
        },
        {
            "buffer" : 0,
            "byteLength" : 4032,
            "byteOffset" : 1008,
            "target" : 34962
        },
        {
            "buffer" : 0,
            "byteLength" : 4032,
            "byteOffset" : 5040,
            "target" : 34962
        },
        {
            "buffer" : 0,
            "byteLength" : 5376,
            "byteOffset" : 9072,
            "target" : 34962
        },
        {
            "buffer" : 0,
            "byteLength" : 2688,
            "byteOffset" : 14448,
            "target" : 34962
        },
        {
            "buffer" : 0,
            "byteLength" : 1872,
            "byteOffset" : 17136,
            "target" : 34963
        },
        {
            "buffer" : 0,
            "byteLength" : 6864,
            "byteOffset" : 19008,
            "target" : 34962
        },
        {
            "buffer" : 0,
            "byteLength" : 6864,
            "byteOffset" : 25872,
            "target" : 34962
        },
        {
            "buffer" : 0,
            "byteLength" : 4576,
            "byteOffset" : 32736,
            "target" : 34962
        }
    ],
    "buffers" : [
        {
            "byteLength" : 37312,
            "uri" : "skyminer_low_test.bin"
        }
    ],
    "images" : [
        {
            "name" : "skyminer_7_low_normal.png",
            "uri" : "skyminer_7_low_normal.png.png"
        },
        {
            "name" : "skyminer_7_low_color.png",
            "uri" : "skyminer_7_low_color.png.png"
        },
        {
            "name" : "skyminer_7_low_normal",
            "uri" : "skyminer_7_low_normal.png"
        },
        {
            "name" : "skyminer_7_low_color",
            "uri" : "skyminer_7_low_color.png"
        }
    ],
    "materials" : [
        {
            "name" : "elbow_low",
            "normalTexture" : {
                "index" : 0
            },
            "pbrMetallicRoughness" : {
                "baseColorFactor" : [
                    0.9999996423721313,
                    1.0,
                    1.0,
                    1.0
                ],
                "baseColorTexture" : {
                    "index" : 1
                },
                "roughnessFactor" : 0.30000001192092896
            }
        },
        {
            "name" : "frame_low",
            "normalTexture" : {
                "index" : 2
            },
            "pbrMetallicRoughness" : {
                "baseColorTexture" : {
                    "index" : 3
                },
                "roughnessFactor" : 0.25
            }
        }
    ],
    "meshes" : [
        {
            "name" : "frame_low.013",
            "primitives" : [
                {
                    "attributes" : {
                        "NORMAL" : 2,
                        "POSITION" : 1,
                        "TANGENT" : 3,
                        "TEXCOORD_0" : 4
                    },
                    "indices" : 0,
                    "material" : 1
                }
            ]
        },
        {
            "name" : "elbow_low",
            "primitives" : [
                {
                    "attributes" : {
                        "NORMAL" : 7,
                        "POSITION" : 6,
                        "TEXCOORD_0" : 8
                    },
                    "indices" : 5,
                    "material" : 0
                }
            ]
        }
    ],
    "nodes" : [
        {
            "name" : "Camera",
            "rotation" : [
                0.48170700669288635,
                0.3342514932155609,
                -0.21292176842689514,
                0.7816000580787659
            ],
            "translation" : [
                7.481131553649902,
                5.34366512298584,
                6.5076398849487305
            ]
        },
        {
            "mesh" : 1,
            "name" : "elbow_low",
            "rotation" : [
                -0.5,
                -0.49999386072158813,
                -0.5000060796737671,
                0.5
            ],
            "scale" : [
                7.491000175476074,
                7.491000175476074,
                7.491000175476074
            ],
            "translation" : [
                84.41766357421875,
                84.33784484863281,
                -127.46023559570312
            ]
        },
        {
            "mesh" : 0,
            "name" : "frame_low.013",
            "rotation" : [
                0.0,
                0.0,
                -0.7071067690849304,
                0.7071068286895752
            ],
            "scale" : [
                -8.219568252563477,
                -9.958048820495605,
                -9.958048820495605
            ],
            "translation" : [
                -107.50629425048828,
                30.378129959106445,
                127.46443176269531
            ]
        },
        {
            "name" : "Lamp",
            "rotation" : [
                0.16907574236392975,
                0.7558802962303162,
                -0.27217134833335876,
                0.5709474682807922
            ],
            "translation" : [
                4.076245307922363,
                5.903861999511719,
                -1.0054539442062378
            ]
        }
    ],
    "samplers" : [
        {}
    ],
    "scene" : 0,
    "scenes" : [
        {
            "name" : "Scene",
            "nodes" : [
                2,
                3,
                0,
                1
            ]
        }
    ],
    "textures" : [
        {
            "sampler" : 0,
            "source" : 0
        },
        {
            "sampler" : 0,
            "source" : 1
        },
        {
            "sampler" : 0,
            "source" : 2
        },
        {
            "sampler" : 0,
            "source" : 3
        }
    ]
}
